<svg width="1698" height="760" viewBox="-170 -210 1698 760" xmlns="http://www.w3.org/2000/svg" role="img" aria-labelledby="title desc">
  <title id="title">LoadingMachine state diagram</title>
  <desc id="desc">State diagram for LoadingMachine with 4 nodes.</desc>
  <defs>
    <marker id="arrow" markerWidth="10" markerHeight="10" refX="8" refY="5" orient="auto">
      <path d="M 0 0 L 10 5 L 0 10 Z" fill="#334155" />
    </marker>
    <style>
      .title { font: 700 22px ui-sans-serif, system-ui, sans-serif; fill: #0f172a; }
      .subtitle { font: 12px ui-sans-serif, system-ui, sans-serif; fill: #475569; }
      .node-label { font: 700 15px ui-sans-serif, system-ui, sans-serif; fill: #0f172a; text-anchor: middle; dominant-baseline: middle; }
      .node-subtitle { font: 12px ui-sans-serif, system-ui, sans-serif; fill: #475569; text-anchor: middle; dominant-baseline: middle; }
      .edge-label { font: 12px ui-sans-serif, system-ui, sans-serif; fill: #334155; text-anchor: middle; dominant-baseline: middle; }
      .edge-label-bg { fill: rgba(255, 255, 255, 0.9); stroke: rgba(100, 116, 139, 0.42); stroke-width: 1; }
      .panel-title { font: 700 13px ui-sans-serif, system-ui, sans-serif; fill: #0f172a; }
      .panel-row { font: 12px ui-sans-serif, system-ui, sans-serif; fill: #475569; }
    </style>
  </defs>
  <rect x="-170" y="-210" width="1698" height="760" fill="#ffffff" />
  <text x="48" y="42" class="title">LoadingMachine</text>
  <text x="48" y="64" class="subtitle">Entry state: Initializing</text>





    <path d="M 236 146 Q 373 296 406 146" fill="none" stroke="#334155" stroke-width="2.2" marker-end="url(#arrow)" />
    <rect x="294.4" y="212" width="105.19999999999999" height="18" rx="6" class="edge-label-bg" />
    <text x="347" y="221" class="edge-label">StartLoading</text>

    <path d="M 594 146 Q 627 -4 764 146" fill="none" stroke="#334155" stroke-width="2.2" marker-end="url(#arrow)" />
    <rect x="589" y="62" width="128" height="18" rx="6" class="edge-label-bg" />
    <text x="653" y="71" class="edge-label">FinishedLoading</text>

    <path d="M 570 124 C 628 70, 628 70, 500 112" fill="none" stroke="#334155" stroke-width="2.2" marker-end="url(#arrow)" />
    <rect x="505.2" y="61" width="59.599999999999994" height="18" rx="6" class="edge-label-bg" />
    <text x="535" y="70" class="edge-label">Update</text>

    <path d="M 952 146 Q 985 -4 1122 146" fill="none" stroke="#c2410c" stroke-width="2.2" marker-end="url(#arrow)" stroke-dasharray="7 5" />
    <rect x="928" y="62" width="166" height="18" rx="6" class="edge-label-bg" />
    <text x="1011" y="71" class="edge-label">Reset (history back)</text>

    <path d="M 928 124 C 986 70, 986 70, 858 112" fill="none" stroke="#334155" stroke-width="2.2" marker-end="url(#arrow)" />
    <rect x="866" y="61" width="54" height="18" rx="6" class="edge-label-bg" />
    <text x="893" y="70" class="edge-label">World</text>

    <rect x="48" y="112" width="188" height="68" rx="16" fill="#ecfeff" stroke="#0f766e" stroke-width="2.5" />
    <text x="142" y="142" class="node-label">Initializing</text>
    <text x="142" y="162" class="node-subtitle">Entry state</text>

    <rect x="406" y="112" width="188" height="68" rx="16" fill="#f8fafc" stroke="#0f172a" stroke-width="2.5" />
    <text x="500" y="142" class="node-label">Loading</text>


    <rect x="764" y="112" width="188" height="68" rx="16" fill="#f8fafc" stroke="#0f172a" stroke-width="2.5" />
    <text x="858" y="142" class="node-label">Ready</text>


    <rect x="1122" y="112" width="188" height="68" rx="16" fill="#fff7ed" stroke="#c2410c" stroke-width="2.5" stroke-dasharray="8 6" />
    <text x="1216" y="142" class="node-label">History</text>


    <rect x="1462" y="638" width="208" height="76" rx="14" fill="#f8fafc" stroke="#cbd5e1" stroke-width="1.5" />
    <text x="1482" y="664" class="panel-title">Outputs</text>
    <text x="1482" y="688" class="panel-row">• Hello</text>
</svg>
