<svg width="1124" height="340" viewBox="0 0 1124 340" xmlns="http://www.w3.org/2000/svg" role="img" aria-labelledby="title desc">
  <title id="title">LoadingMachine state diagram</title>
  <desc id="desc">State diagram for LoadingMachine with 4 nodes.</desc>
  <defs>
    <marker id="arrow" markerWidth="10" markerHeight="10" refX="8" refY="5" orient="auto">
      <path d="M 0 0 L 10 5 L 0 10 Z" fill="#334155" />
    </marker>
    <style>
      .title { font: 700 22px ui-sans-serif, system-ui, sans-serif; fill: #0f172a; }
      .subtitle { font: 12px ui-sans-serif, system-ui, sans-serif; fill: #475569; }
      .node-label { font: 700 15px ui-sans-serif, system-ui, sans-serif; fill: #0f172a; text-anchor: middle; dominant-baseline: middle; }
      .node-subtitle { font: 12px ui-sans-serif, system-ui, sans-serif; fill: #475569; text-anchor: middle; dominant-baseline: middle; }
      .edge-label { font: 12px ui-sans-serif, system-ui, sans-serif; fill: #334155; text-anchor: middle; }
      .panel-title { font: 700 13px ui-sans-serif, system-ui, sans-serif; fill: #0f172a; }
      .panel-row { font: 12px ui-sans-serif, system-ui, sans-serif; fill: #475569; }
    </style>
  </defs>
  <rect x="0" y="0" width="1124" height="340" fill="#ffffff" />
  <text x="48" y="42" class="title">LoadingMachine</text>
  <text x="48" y="64" class="subtitle">Entry state: Initializing</text>

    <path d="M 228 146 L 336 146" fill="none" stroke="#334155" stroke-width="2.2" marker-end="url(#arrow)" />
    <text x="282" y="130" class="edge-label">StartLoading</text>

    <path d="M 508 146 L 616 146" fill="none" stroke="#334155" stroke-width="2.2" marker-end="url(#arrow)" />
    <text x="562" y="130" class="edge-label">FinishedLoading</text>

    <path d="M 492 124 C 550 70, 550 70, 422 112" fill="none" stroke="#334155" stroke-width="2.2" marker-end="url(#arrow)" />
    <text x="534" y="86" class="edge-label">Update</text>

    <path d="M 788 146 L 896 146" fill="none" stroke="#c2410c" stroke-width="2.2" marker-end="url(#arrow)" stroke-dasharray="7 5" />
    <text x="842" y="130" class="edge-label">Reset (history back)</text>

    <path d="M 772 124 C 830 70, 830 70, 702 112" fill="none" stroke="#334155" stroke-width="2.2" marker-end="url(#arrow)" />
    <text x="814" y="86" class="edge-label">World</text>

    <rect x="48" y="112" width="188" height="68" rx="16" fill="#ecfeff" stroke="#0f766e" stroke-width="2.5" />
    <text x="142" y="142" class="node-label">Initializing</text>
    <text x="142" y="162" class="node-subtitle">Entry state</text>

    <rect x="328" y="112" width="188" height="68" rx="16" fill="#f8fafc" stroke="#0f172a" stroke-width="2.5" />
    <text x="422" y="142" class="node-label">Loading</text>


    <rect x="608" y="112" width="188" height="68" rx="16" fill="#f8fafc" stroke="#0f172a" stroke-width="2.5" />
    <text x="702" y="142" class="node-label">Ready</text>


    <rect x="888" y="112" width="188" height="68" rx="16" fill="#fff7ed" stroke="#c2410c" stroke-width="2.5" stroke-dasharray="8 6" />
    <text x="982" y="142" class="node-label">History</text>


    <rect x="888" y="218" width="208" height="76" rx="14" fill="#f8fafc" stroke="#cbd5e1" stroke-width="1.5" />
    <text x="908" y="244" class="panel-title">Outputs</text>
    <text x="908" y="268" class="panel-row">• Hello</text>
</svg>
